<svg xmlns="http://www.w3.org/2000/svg" viewBox="155 287 952 657" fill="black" role="img" aria-label="Bessie">
<path d="M524.797 739.946L525.132 739.939C579.932 739.315 635.621 739.848 690.484 739.835L746.332 739.829C787.106 739.842 819.986 738.617 851.63 770.046C869.418 788.036 879.374 812.332 879.331 837.633C879.282 864.923 868.456 891.093 849.199 910.436C826.838 932.571 803.515 938.4 773.188 938.326L595.191 938.351H547.963C532.758 938.351 516.044 938.994 501.262 935.871C482.475 931.854 465.111 922.872 450.979 909.86C431.355 891.871 419.835 866.711 419.035 840.1C418.405 814.69 427.947 790.081 445.541 771.736C467.441 748.769 494.055 740.778 524.797 739.946ZM540.384 871.805C560.541 869.264 574.787 850.816 572.141 830.671C569.496 810.526 550.97 796.376 530.841 799.131C510.859 801.856 496.838 820.219 499.463 840.21C502.089 860.208 520.375 874.328 540.384 871.805ZM767.475 871.769C787.51 869.087 801.587 850.687 798.929 830.652C796.278 810.618 777.903 796.516 757.862 799.143C737.784 801.77 723.646 820.194 726.304 840.266C728.961 860.343 747.404 874.451 767.475 871.769Z"></path>
<path d="M366.703 293.429C380.022 292.425 392.136 296.241 398.931 308.682C403.089 316.296 403.334 324.756 405.595 333.029C407.718 340.52 410.76 347.719 414.652 354.463C430.138 381.563 457.584 400.768 487.472 408.799C495.382 410.895 503.484 412.184 511.654 412.645C528.672 413.589 551.879 412.852 569.492 412.854L679.291 412.858L754.788 412.863C768.908 412.874 789.677 413.477 803.221 411.819C819.962 409.666 836.071 404.073 850.546 395.392C873.159 382.099 891.993 360.676 899.727 335.407C904.374 320.248 902.066 305.923 918.573 296.984C926.233 292.918 935.204 292.09 943.482 294.683C951.025 296.955 957.308 302.217 960.871 309.246C969.799 326.827 960.688 368.815 954.938 386.534C939.722 432.771 897.975 475.59 850.307 486.782C821.621 493.518 781.931 491.218 751.812 491.231L618.373 491.224L529.844 491.25C513.662 491.257 490.649 491.925 475.041 490.105C454.661 487.576 434.998 480.977 417.221 470.698C381.92 450.142 356.312 416.316 346.107 376.762C342.113 361.454 340.756 348.264 340.407 332.554C339.956 312.269 345.073 298.484 366.703 293.429Z"></path>
<path d="M310.736 479.69C338.566 476.285 385.151 492.539 408.851 509.216C431.73 525.315 414.369 563.482 399.975 580.717C377.991 607.04 352.39 621.753 317.792 625.684C285.424 626.431 262.231 616.107 236.863 596.659C159.986 537.73 249.145 484.511 310.736 479.69Z"></path>
<path d="M978.193 479.694C1007.23 477.154 1042.53 489.265 1065.24 507.125C1090.64 527.103 1101.81 551.599 1079.88 579.409C1059.66 605.107 1030.06 621.728 997.591 625.628C969.786 627.135 945.049 617.889 922.29 599.867C901.104 583.086 869.821 541.677 890.028 513.248C895.183 506.994 903.841 503.308 910.705 499.712C932.338 488.374 953.799 481.516 978.193 479.694Z"></path>
<path d="M758.682 569.197C786.126 565.394 811.463 584.565 815.259 612.014C819.049 639.467 799.872 664.792 772.422 668.576C744.985 672.366 719.672 653.194 715.876 625.757C712.08 598.319 731.245 573 758.682 569.197Z"></path>
<path d="M534.518 569.551C561.979 568.496 585.108 589.875 586.215 617.332C587.321 644.794 565.986 667.963 538.529 669.121C510.999 670.278 487.755 648.878 486.646 621.342C485.537 593.813 506.984 570.609 534.518 569.551Z"></path>
</svg>
