<svg xmlns="http://www.w3.org/2000/svg" width="24" height="24" viewBox="0 0 24 24"><path d="M336 704c0 8.837 7.163 16 16 16v0h512c8.837 0 16-7.163 16-16s-7.163-16-16-16v0h-512c-8.837 0-16 7.163-16 16v0zM864 464h-512c-8.837 0-16-7.163-16-16s7.163-16 16-16v0h512c8.837 0 16 7.163 16 16s-7.163 16-16 16v0zM864 208h-512c-8.837 0-16-7.163-16-16s7.163-16 16-16v0h512c8.837 0 16 7.163 16 16s-7.163 16-16 16v0zM176 480c-17.673 0-32-14.327-32-32s14.327-32 32-32c17.673 0 32 14.327 32 32v0c0 17.673-14.327 32-32 32v0zM176 736c-17.673 0-32-14.327-32-32s14.327-32 32-32c17.673 0 32 14.327 32 32v0c0 17.673-14.327 32-32 32v0zM176 224c-17.673 0-32-14.327-32-32s14.327-32 32-32c17.673 0 32 14.327 32 32v0c0 17.673-14.327 32-32 32v0z" transform="scale(.0234375) translate(0 960) scale(1 -1)"/></svg>
